<svg width="168" height="34" viewBox="0 0 168 34" fill="none" xmlns="http://www.w3.org/2000/svg">
<path d="M16.8505 27.7037H14.47C0.995364 27.7037 -0.305786 21.8441 0.0478549 18.017C0.0626429 17.857 0.198191 17.7376 0.358905 17.7376H8.36708C8.54181 17.7376 8.6822 17.8792 8.69078 18.0537C8.77316 19.7288 9.64779 21.9831 16.0814 21.9831H16.5209C24.1386 21.9831 24.6514 20.1481 24.6514 18.8169C24.6514 17.3418 23.8456 16.6222 18.5352 16.4423L13.9939 16.3344C4.50836 16.1545 1.87146 12.6286 1.87146 8.52698C1.87146 7.9873 1.87146 7.66349 1.98133 7.12381C2.56731 3.45397 5.20421 0 17.3999 0H19.7438C32.0807 0 34.6547 4.20899 34.2061 8.53919C34.1897 8.69701 34.0549 8.81481 33.8963 8.81481H25.8884C25.7265 8.81481 25.5931 8.69286 25.568 8.53292C25.3937 7.42199 24.5922 5.57672 18.2788 5.57672H17.7661C10.9175 5.57672 10.5513 6.94392 10.5513 7.9873C10.5513 9.03069 11.064 10.1101 16.0082 10.218L20.403 10.2899C30.0717 10.4698 33.5509 12.7725 33.5509 17.8095C33.5509 18.4931 33.4777 19.2847 33.3678 19.8243C32.5987 23.7101 30.1815 27.7037 16.8505 27.7037Z" fill="black"/>
<path d="M47.415 27.0605C47.3615 27.168 47.2518 27.236 47.1317 27.236H39.3291C39.1864 27.236 39.0613 27.1405 39.0238 27.0028L33.9224 8.2789C33.8676 8.07766 34.0191 7.87936 34.2277 7.87936H41.6907C41.8388 7.87936 41.967 7.98204 41.9994 8.12651L44.5274 19.4002C44.5931 19.6933 44.992 19.7384 45.1216 19.4674L50.5744 8.0593C50.627 7.94935 50.738 7.87936 50.8599 7.87936H58.7582C58.9059 7.87936 59.0339 7.98149 59.0667 8.12545L61.6291 19.3715C61.6957 19.6636 62.0933 19.7081 62.2228 19.4379L67.6776 8.05898C67.7302 7.94921 67.8411 7.87936 67.9629 7.87936H74.786C75.0236 7.87936 75.1765 8.13155 75.0665 8.34218L65.2888 27.0661C65.2342 27.1705 65.1262 27.236 65.0083 27.236H57.0619C56.916 27.236 56.7889 27.1361 56.7545 26.9943L53.9049 15.2696C53.8352 14.9829 53.4456 14.9392 53.3142 15.2034L47.415 27.0605Z" fill="black"/>
<path d="M83.817 0.467725C84.0123 0.467725 84.161 0.642969 84.1292 0.835676L83.3181 5.74367C83.2929 5.89642 83.1608 6.00847 83.006 6.00847H75.6633C75.468 6.00847 75.3194 5.83322 75.3512 5.64051L76.1622 0.732517C76.1875 0.579768 76.3196 0.467725 76.4744 0.467725H83.817ZM82.6101 7.87936C82.8048 7.87936 82.9533 8.05367 82.9224 8.24597L79.9112 26.9698C79.8865 27.1232 79.7541 27.236 79.5988 27.236H72.2557C72.061 27.236 71.9124 27.0617 71.9434 26.8694L74.9546 8.1455C74.9793 7.99214 75.1116 7.87936 75.267 7.87936H82.6101Z" fill="black"/>
<path d="M98.971 12.4127H98.7879C94.1367 12.4127 91.9393 14.7873 91.4632 16.6222C91.3533 17.054 91.2801 17.4857 91.2801 18.0614C91.2801 20.2561 93.5141 22.5947 98.0554 22.5947H98.2752C103.732 22.5947 105.197 19.5365 105.197 16.9101C105.197 14.3915 103.659 12.4127 98.971 12.4127ZM84.7914 8.14537C84.8161 7.99207 84.9485 7.87936 85.1037 7.87936H92.4481C92.6425 7.87936 92.7909 8.05301 92.7606 8.24502L92.5482 9.59188C92.5025 9.88167 92.8478 10.0801 93.0862 9.90915C94.4043 8.96428 97.2226 7.41164 101.938 7.41164H102.414C110.361 7.41164 113.327 11.6212 113.327 16.2265C113.327 16.7661 113.327 17.3778 113.218 18.3492C112.632 23.6381 108.493 27.7037 99.7767 27.7037H99.3373C94.5305 27.7037 91.8263 25.9869 90.6116 24.8927C90.4144 24.7151 90.0822 24.8185 90.0401 25.0806L88.6493 33.7338C88.6247 33.8872 88.4923 34 88.337 34H80.994C80.7992 34 80.6507 33.8256 80.6817 33.6333L84.7914 8.14537Z" fill="black"/>
<path d="M128.517 11.837H128.48C124.707 11.837 122.827 12.891 121.902 14.6825C121.799 14.8825 121.952 15.1111 122.177 15.1111H134.276C134.466 15.1111 134.614 14.9444 134.575 14.7588C134.169 12.8613 132.386 11.837 128.517 11.837ZM133.809 20.5642C133.868 20.4637 133.973 20.4 134.089 20.4H141.474C141.67 20.4 141.819 20.5743 141.781 20.7661C141.24 23.4434 139.237 27.7757 128.114 27.7757H126.136C116.468 27.7757 113.281 23.7101 113.281 18.745C113.281 18.1333 113.318 17.3418 113.428 16.6582C114.197 11.837 117.53 7.33968 127.748 7.33968H129.909C139.87 7.33968 142.324 11.873 142.324 16.1905C142.324 17.2856 142.213 18.2175 142.112 18.8441C142.088 18.9953 141.956 19.1048 141.803 19.1048H121.346C121.164 19.1048 121.018 19.2599 121.044 19.4408C121.342 21.5195 123.169 22.8825 127.308 22.8825H127.345C132.141 22.8825 133.386 21.2916 133.809 20.5642Z" fill="black"/>
<path d="M165.002 26.9687C164.978 27.1226 164.845 27.236 164.69 27.236H141.232C141.037 27.236 140.889 27.0626 140.919 26.8707L141.573 22.698C141.586 22.6094 141.637 22.5308 141.713 22.4818L155.24 13.6778C155.504 13.5061 155.383 13.0963 155.068 13.0963H143.504C143.309 13.0963 143.161 12.9219 143.192 12.7295L143.932 8.1453C143.957 7.99203 144.089 7.87936 144.244 7.87936H167.628C167.823 7.87936 167.972 8.0541 167.94 8.24659L167.29 12.2357C167.276 12.3253 167.223 12.4044 167.146 12.4527L153.072 21.2908C152.804 21.4597 152.923 21.8751 153.241 21.8751H165.433C165.627 21.8751 165.775 22.0487 165.745 22.2406L165.002 26.9687Z" fill="black"/>
</svg>
